<svg xmlns="http://www.w3.org/2000/svg" viewBox="0 0 395.52 43.55155792096887" height="43.55155792096887" width="395.52">
    <g>
        <svg xmlns="http://www.w3.org/2000/svg" viewBox="0 0 497.6549654375168 54.79785864661654" height="43.55155792096887"
            width="395.52">
            <g transform="matrix(1,0,0,1,102.13496543751688,7.573365413533839)">
                <svg xmlns="http://www.w3.org/2000/svg"
                    viewBox="0 0 395.5199999999999 39.65112781954886" height="39.65112781954886"
                    width="395.5199999999999">
                    <g id="textblocktransform">
                        <svg xmlns="http://www.w3.org/2000/svg" viewBox="0 0 395.5199999999999 39.65112781954886"
                            height="39.65112781954886" width="395.5199999999999" id="textblock">
                            <g>
                                <svg xmlns="http://www.w3.org/2000/svg" viewBox="0 0 395.5199999999999 39.65112781954886"
                                    height="39.65112781954886" width="395.5199999999999">
                                    <g transform="matrix(1,0,0,1,0,0)">
                                        <svg xmlns="http://www.w3.org/2000/svg" width="395.5199999999999"
                                            viewBox="2.5 -33.5 336.6300048828125 34"
                                            height="39.65112781954886" data-palette-color="#4b625f">
                                            <g class="wordmark-text-0"
                                                data-fill-palette-color="primary" id="text-0">
                                                <path
                                                    d="M2.5-33L18.7-33Q26.45-33 30.4-28.7 34.35-24.4 34.35-16.5L34.35-16.5Q34.35-8.65 30.4-4.33 26.45 0 18.7 0L18.7 0 2.5 0 2.5-33ZM14.15-8.3L17.05-8.3Q20.3-8.3 21.38-10.28 22.45-12.25 22.45-16.5L22.45-16.5Q22.45-20.75 21.38-22.73 20.3-24.7 17.05-24.7L17.05-24.7 14.15-24.7 14.15-8.3ZM57.9-33L69.55-33 69.55-14.2Q69.55-6.8 65.57-3.15 61.6 0.5 53.6 0.5L53.6 0.5Q45.6 0.5 41.62-3.15 37.65-6.8 37.65-14.2L37.65-14.2 37.65-33 49.35-33 49.35-13.3Q49.35-10.8 50.45-9.53 51.55-8.25 53.6-8.25L53.6-8.25Q55.7-8.25 56.8-9.53 57.9-10.8 57.9-13.3L57.9-13.3 57.9-33ZM73.9-33L91.8-33Q98.25-33 101.7-30.13 105.15-27.25 105.15-22.5L105.15-22.5Q105.15-17.05 101.77-14.3 98.4-11.55 91.95-11.55L91.95-11.55 90.8-10.95 85.3-10.95 85.3 0 73.9 0 73.9-33ZM85.3-18.6L89.8-18.6Q91.65-18.6 92.57-19.28 93.5-19.95 93.5-21.65L93.5-21.65Q93.5-23.3 92.57-24 91.65-24.7 89.8-24.7L89.8-24.7 85.3-24.7 85.3-18.6ZM86.65-14.45L96.7-16.15 107 0 94.35 0 86.65-14.45ZM129.84-33L141.49-33 141.49 0 129.84 0 129.84-33ZM109.14-33L120.79-33 120.79 0 109.14 0 109.14-33ZM114.74-20.85L136.29-20.85 136.29-12.3 114.74-12.3 114.74-20.85ZM155.09 0L143.49 0 154.19-33 168.19-33 178.94 0 167.04 0 162.54-18.95 161.19-24.55 161.04-24.55 159.74-18.95 155.09 0ZM170.69-6.3L151.84-6.3 151.84-13.55 170.69-13.55 170.69-6.3ZM207.84-33L223.34-33 223.34 0 213.19 0 213.19-11.45 213.34-22.55 213.19-22.55 206.79 0 197.49 0 191.19-22.55 190.99-22.55 191.14-11.45 191.14 0 180.94 0 180.94-33 197.24-33 201.04-18.35 202.49-12.2 202.59-12.2 204.04-18.35 207.84-33Z"
                                                    fill="#000"
                                                    data-fill-palette-color="primary"></path>
                                                <path
                                                    d="M266.39-25.05L245.89-4.45 243.84-8.3 266.94-8.3 266.94 0 237.09 0 237.09-7.95 257.69-28.55 259.69-24.7 237.29-24.7 237.29-33 266.39-33 266.39-25.05ZM285.94-33.5L285.94-33.5Q291.18-33.5 294.93-31.5 298.68-29.5 300.68-25.7 302.68-21.9 302.68-16.5L302.68-16.5Q302.68-11.1 300.68-7.3 298.68-3.5 294.93-1.5 291.18 0.5 285.94 0.5L285.94 0.5Q280.74 0.5 276.96-1.5 273.19-3.5 271.16-7.3 269.14-11.1 269.14-16.5L269.14-16.5Q269.14-21.9 271.16-25.7 273.19-29.5 276.96-31.5 280.74-33.5 285.94-33.5ZM285.94-24.75L285.94-24.75Q284.24-24.75 283.16-23.88 282.09-23 281.56-21.2 281.04-19.4 281.04-16.5L281.04-16.5Q281.04-13.65 281.56-11.83 282.09-10 283.16-9.13 284.24-8.25 285.94-8.25L285.94-8.25Q287.64-8.25 288.71-9.13 289.79-10 290.29-11.83 290.79-13.65 290.79-16.5L290.79-16.5Q290.79-19.4 290.29-21.2 289.79-23 288.71-23.88 287.64-24.75 285.94-24.75ZM322.38-33.5L322.38-33.5Q327.63-33.5 331.38-31.5 335.13-29.5 337.13-25.7 339.13-21.9 339.13-16.5L339.13-16.5Q339.13-11.1 337.13-7.3 335.13-3.5 331.38-1.5 327.63 0.5 322.38 0.5L322.38 0.5Q317.18 0.5 313.41-1.5 309.63-3.5 307.61-7.3 305.58-11.1 305.58-16.5L305.58-16.5Q305.58-21.9 307.61-25.7 309.63-29.5 313.41-31.5 317.18-33.5 322.38-33.5ZM322.38-24.75L322.38-24.75Q320.68-24.75 319.61-23.88 318.53-23 318.01-21.2 317.48-19.4 317.48-16.5L317.48-16.5Q317.48-13.65 318.01-11.83 318.53-10 319.61-9.13 320.68-8.25 322.38-8.25L322.38-8.25Q324.08-8.25 325.16-9.13 326.23-10 326.73-11.83 327.23-13.65 327.23-16.5L327.23-16.5Q327.23-19.4 326.73-21.2 326.23-23 325.16-23.88 324.08-24.75 322.38-24.75Z"
                                                    fill="#54844d"
                                                    data-fill-palette-color="secondary"></path>
                                            </g>
                                        </svg>
                                    </g>
                                </svg>
                            </g>
                        </svg>
                    </g>
                </svg>
            </g>
            <g>
                <svg xmlns="http://www.w3.org/2000/svg" viewBox="0 0 92.77428578638906 54.79785864661654" height="54.79785864661654"
                    width="92.77428578638906">
                    <g>
                        <svg xmlns="http://www.w3.org/2000/svg"
                            xmlns:xlink="http://www.w3.org/1999/xlink" version="1.1" x="0" y="0"
                            viewBox="6.77400016784668 46.57500076293945 90.44999694824219 53.42499923706055"
                            enable-background="new 0 0 100 100" xml:space="preserve"
                            height="54.79785864661654" width="92.77428578638906" class="icon-icon-0"
                            data-fill-palette-color="accent" id="icon-0">
                            <g fill="#3d9970" data-fill-palette-color="accent">
                                <polygon fill="#54844d"
                                    points="21.07,78.115 26.417,87.941 19.928,100 13.046,100  "
                                    data-fill-palette-color="accent"></polygon>
                                <polygon fill="#54844d"
                                    points="60.734,86.577 65.427,95.227 62.572,100 55.708,100  "
                                    data-fill-palette-color="accent"></polygon>
                                <polygon fill="#54844d"
                                    points="32.462,46.575 18.231,46.575 18.231,51.761 6.774,51.761 6.774,59.358 36.683,90.231 36.683,100    43.557,100 43.557,78.051 63.004,78.051 74.652,90.045 74.652,100 81.546,100 81.546,79.137 93.727,91.679 97.224,91.679    69.245,62.494 47.939,62.494  "
                                    data-fill-palette-color="accent"></polygon>
                            </g>
                        </svg>
                    </g>
                </svg>
            </g>
        </svg>
    </g>
    <defs></defs>
</svg>