<?xml version="1.0" encoding="UTF-8"?>
<svg xmlns="http://www.w3.org/2000/svg" viewBox="0 0 395.5199999999999 156.5298307745965"
    height="156.5298307745965"
    width="395.5199999999999">
    <g>
        <svg viewBox="0 0 395.52000000000004 156.52983077459652" height="156.5298307745965"
            width="395.5199999999999">
            <g transform="matrix(1,0,0,1,0,102.75776321087365)">
                <svg viewBox="0 0 395.52000000000004 53.772067563722885" height="53.772067563722885"
                    width="395.52000000000004">
                    <g id="textblocktransform">
                        <svg viewBox="0 0 395.52000000000004 53.772067563722885"
                            height="53.772067563722885" width="395.52000000000004" id="textblock">
                            <g>
                                <svg viewBox="0 0 395.52000000000004 53.772067563722885"
                                    height="53.772067563722885" width="395.52000000000004">
                                    <g transform="matrix(1,0,0,1,0,0)">
                                        <svg width="395.52000000000004"
                                            viewBox="1.6896167993545532 -32.23860168457031 326.9891357421875 44.45511245727539"
                                            height="53.772067563722885" data-palette-color="#000000">
                                            <path
                                                d="M3.905-21.99l11.925-1.427c2.376-0.284 4.528-0.089 6.456 0.587 1.934 0.675 3.604 1.731 5.011 3.167 1.406 1.43 2.545 3.143 3.415 5.141 0.863 1.992 1.432 4.143 1.709 6.453v0c0.379 3.164 0.17 6.106-0.626 8.827-0.796 2.72-2.178 4.974-4.146 6.76-1.962 1.786-4.538 2.869-7.728 3.251v0l-11.925 1.427c-0.682 0.082-1.296-0.083-1.842-0.494-0.547-0.418-0.863-0.984-0.949-1.7v0l-3.494-29.201c-0.086-0.722 0.087-1.347 0.521-1.876 0.434-0.529 0.991-0.834 1.673-0.915zM9.778 7.229l9.085-1.087c2.317-0.277 4.122-1.071 5.416-2.38 1.293-1.316 2.162-2.948 2.607-4.894 0.444-1.953 0.532-4.055 0.263-6.306v0c-0.198-1.655-0.571-3.201-1.12-4.64-0.555-1.438-1.302-2.688-2.241-3.75-0.932-1.057-2.051-1.846-3.355-2.369-1.298-0.523-2.811-0.681-4.539-0.474v0l-9.224 1.104 0.385-0.489 3.079 25.736zM61.315-28.049v0c0.717-0.066 1.31 0.117 1.778 0.549 0.468 0.432 0.736 1.01 0.803 1.733v0l1.717 18.561c0.241 2.609-0.114 4.995-1.065 7.158-0.951 2.164-2.369 3.918-4.253 5.265-1.884 1.346-4.134 2.14-6.749 2.381v0c-2.576 0.238-4.923-0.13-7.042-1.106-2.112-0.976-3.844-2.44-5.197-4.39-1.352-1.95-2.149-4.23-2.39-6.838v0l-1.717-18.561c-0.067-0.724 0.123-1.344 0.571-1.861 0.448-0.517 1.063-0.811 1.846-0.884v0c0.624-0.058 1.21 0.126 1.759 0.551 0.548 0.425 0.856 0.999 0.922 1.722v0l1.717 18.561c0.16 1.733 0.685 3.207 1.575 4.424 0.883 1.217 1.995 2.135 3.338 2.754 1.343 0.619 2.731 0.862 4.164 0.729v0c1.567-0.145 2.97-0.646 4.21-1.504 1.24-0.858 2.198-1.968 2.875-3.329 0.684-1.362 0.946-2.91 0.786-4.642v0l-1.717-18.561c-0.067-0.724 0.08-1.34 0.441-1.848 0.368-0.509 0.91-0.797 1.628-0.864zM77.433 5.386v0c-0.785 0.051-1.489-0.141-2.111-0.575-0.623-0.441-0.958-1.02-1.005-1.739v0l-1.895-29.349c-0.047-0.725 0.161-1.34 0.623-1.844 0.462-0.504 1.035-0.778 1.72-0.822v0l13.841-0.894c1.77-0.114 3.418 0.214 4.944 0.983 1.533 0.769 2.797 1.887 3.794 3.353 0.997 1.465 1.558 3.18 1.685 5.142v0c0.085 1.311-0.094 2.578-0.536 3.802-0.448 1.231-1.085 2.335-1.911 3.31-0.826 0.969-1.78 1.718-2.861 2.249v0l-0.599-0.893c1.034 0.294 1.953 0.752 2.755 1.375 0.795 0.623 1.441 1.37 1.938 2.24 0.504 0.869 0.806 1.875 0.906 3.018v0c0.166 1.011 0.31 1.851 0.433 2.517 0.129 0.66 0.288 1.197 0.475 1.613 0.194 0.415 0.511 0.725 0.952 0.931v0c0.607 0.288 1.007 0.753 1.203 1.395 0.189 0.649 0.087 1.247-0.305 1.793v0c-0.267 0.411-0.62 0.691-1.058 0.84-0.432 0.141-0.88 0.187-1.344 0.137-0.465-0.057-0.865-0.155-1.202-0.293v0c-0.547-0.299-1.11-0.733-1.687-1.304-0.578-0.571-1.065-1.384-1.461-2.441-0.402-1.056-0.661-2.469-0.774-4.239v0c-0.053-0.818-0.228-1.512-0.526-2.08-0.298-0.575-0.688-1.034-1.171-1.378-0.484-0.35-1.044-0.594-1.681-0.733-0.63-0.14-1.321-0.185-2.073-0.136v0l-10.408 0.672 0.625-1.023 0.758 11.726c0.046 0.719-0.111 1.33-0.473 1.834-0.362 0.498-0.886 0.769-1.571 0.813zM78.573-11.252l-0.705-0.987 11.736-0.757c0.75-0.082 1.455-0.431 2.116-1.049 0.668-0.618 1.193-1.433 1.576-2.447 0.376-1.006 0.524-2.132 0.443-3.375v0c-0.101-1.57-0.652-2.857-1.652-3.862-1-1.004-2.139-1.465-3.416-1.383v0l-11.486 0.742 0.456-1.312zM108.918-30.888v0c0.653-0.025 1.245 0.189 1.776 0.643 0.524 0.454 0.8 1.044 0.828 1.769v0l1.122 29.389c-0.006 0.721-0.253 1.331-0.741 1.83-0.488 0.492-1.079 0.752-1.771 0.778v0c-0.753 0.029-1.375-0.184-1.866-0.64-0.498-0.461-0.761-1.052-0.788-1.771v0l-1.122-29.388c-0.028-0.726 0.196-1.335 0.671-1.827 0.475-0.492 1.105-0.753 1.891-0.783zM131.092-31.735v0c0.786-0.03 1.415 0.183 1.886 0.639 0.478 0.455 0.73 1.046 0.758 1.772v0l1.122 29.389c0.027 0.719-0.186 1.328-0.641 1.826-0.455 0.491-1.075 0.752-1.862 0.781v0c-0.693 0.026-1.295-0.187-1.805-0.641-0.505-0.461-0.771-1.051-0.799-1.771v0l-1.121-29.389c-0.028-0.726 0.203-1.335 0.69-1.827 0.488-0.492 1.079-0.752 1.772-0.779zM109.408-11.513l-0.131-4.718 22.414-0.856 0.14 4.718zM153.304-25.487l1.279-0.162-10.823 26.662c-0.188 0.528-0.478 0.941-0.869 1.238-0.391 0.304-0.832 0.458-1.326 0.462v0c-0.72 0.007-1.262-0.195-1.625-0.605-0.364-0.403-0.565-0.918-0.605-1.544v0c-0.002-0.227 0.042-0.487 0.133-0.782v0l12.219-30.324c0.222-0.555 0.554-0.985 0.999-1.289 0.437-0.297 0.919-0.432 1.446-0.404v0c0.493-0.005 0.955 0.138 1.384 0.427 0.423 0.296 0.737 0.703 0.941 1.222v0l12.626 29.644c0.13 0.325 0.196 0.655 0.199 0.988v0c0.007 0.72-0.225 1.302-0.694 1.747-0.469 0.451-1 0.679-1.594 0.684v0c-0.493 0.005-0.945-0.148-1.354-0.457-0.416-0.309-0.723-0.71-0.921-1.202v0zM162.634-6.143l-16.969 0.158 2.176-4.741 13.919-0.129zM176.915-32.099v0c0.393 0.007 0.802 0.11 1.225 0.31 0.423 0.207 0.749 0.492 0.976 0.856v0l12.172 19.245-2.118-0.135 13.053-18.726c0.539-0.744 1.219-1.11 2.038-1.097v0c0.66 0.011 1.239 0.257 1.738 0.739 0.499 0.482 0.742 1.086 0.73 1.813v0l-0.489 29.456c-0.012 0.72-0.252 1.316-0.72 1.788-0.468 0.466-1.078 0.692-1.831 0.68v0c-0.787-0.013-1.413-0.26-1.878-0.742-0.472-0.488-0.702-1.092-0.69-1.811v0l0.414-24.937 1.574 0.376-11.092 16.299c-0.238 0.289-0.539 0.538-0.903 0.745-0.363 0.207-0.742 0.291-1.134 0.251v0c-0.36 0.027-0.729-0.069-1.106-0.289-0.37-0.22-0.669-0.478-0.897-0.775v0l-10.149-16.41 1.213-1.95-0.437 26.316c-0.012 0.72-0.245 1.316-0.7 1.789-0.448 0.466-1.032 0.693-1.751 0.681v0c-0.693-0.012-1.256-0.258-1.688-0.738-0.439-0.487-0.652-1.091-0.64-1.811v0l0.488-29.456c0.012-0.693 0.278-1.279 0.8-1.757 0.515-0.485 1.115-0.722 1.802-0.71zM231.674-30.401l20.866 1.201c0.626 0.036 1.212 0.29 1.759 0.762 0.547 0.479 0.799 1.078 0.758 1.797v0c-0.03 0.519-0.24 1.031-0.629 1.536v0l-21.482 24.827-0.432-0.315 17.98 1.034c0.686 0.039 1.252 0.286 1.7 0.739 0.455 0.454 0.661 1.04 0.62 1.759v0c-0.038 0.652-0.309 1.194-0.814 1.626-0.499 0.432-1.091 0.628-1.777 0.589v0l-22.253-1.281c-0.719-0.041-1.317-0.33-1.794-0.864-0.477-0.535-0.697-1.115-0.661-1.741v0c0.03-0.526 0.256-1.02 0.677-1.484v0l21.482-24.837 0.372 0.322-16.643-0.957c-0.692-0.04-1.262-0.293-1.709-0.76-0.447-0.473-0.65-1.069-0.608-1.788v0c0.039-0.686 0.308-1.228 0.804-1.626 0.497-0.399 1.092-0.578 1.784-0.539zM291.226-8.732v0c-0.21 2.484-0.815 4.762-1.813 6.832-0.999 2.076-2.31 3.852-3.933 5.327-1.624 1.475-3.486 2.575-5.589 3.3-2.102 0.725-4.362 0.985-6.78 0.781v0c-2.385-0.202-4.552-0.837-6.502-1.906-1.95-1.068-3.601-2.466-4.954-4.193-1.346-1.726-2.33-3.696-2.952-5.91-0.616-2.207-0.819-4.552-0.608-7.036v0c0.21-2.478 0.804-4.756 1.783-6.834 0.985-2.071 2.286-3.844 3.903-5.32 1.624-1.475 3.486-2.575 5.588-3.3 2.102-0.725 4.345-0.987 6.73-0.785v0c2.418 0.205 4.602 0.841 6.552 1.91 1.95 1.068 3.601 2.466 4.954 4.193 1.352 1.727 2.347 3.695 2.983 5.902 0.635 2.215 0.848 4.561 0.638 7.039zM285.925-9.181v0c0.205-2.418-0.093-4.631-0.893-6.639-0.8-2.008-2.003-3.639-3.61-4.892-1.599-1.259-3.512-1.983-5.737-2.171v0c-2.186-0.185-4.176 0.208-5.971 1.18-1.795 0.965-3.248 2.364-4.36 4.197-1.105 1.827-1.761 3.966-1.968 6.417v0c-0.205 2.418 0.083 4.633 0.862 6.646 0.787 2.007 1.984 3.637 3.59 4.891 1.607 1.253 3.503 1.973 5.688 2.157v0c2.225 0.188 4.232-0.2 6.02-1.166 1.795-0.965 3.255-2.37 4.382-4.215 1.127-1.852 1.793-3.986 1.997-6.405zM328.538-4.461v0c-0.284 2.477-0.955 4.735-2.014 6.775-1.06 2.046-2.423 3.782-4.089 5.209-1.666 1.426-3.561 2.471-5.683 3.134-2.123 0.663-4.389 0.856-6.8 0.58v0c-2.378-0.272-4.526-0.971-6.443-2.097-1.918-1.125-3.527-2.571-4.828-4.337-1.294-1.765-2.22-3.764-2.777-5.995-0.551-2.224-0.684-4.574-0.4-7.051v0c0.283-2.471 0.944-4.73 1.984-6.778 1.046-2.041 2.398-3.775 4.058-5.202 1.666-1.426 3.561-2.471 5.683-3.134 2.123-0.663 4.373-0.858 6.75-0.586v0c2.411 0.276 4.575 0.977 6.493 2.102 1.918 1.125 3.527 2.571 4.828 4.337 1.301 1.766 2.237 3.762 2.808 5.988 0.57 2.233 0.713 4.584 0.43 7.055zM323.253-5.066v0c0.276-2.411 0.044-4.632-0.697-6.663-0.741-2.031-1.895-3.696-3.464-4.996-1.562-1.306-3.452-2.086-5.671-2.34v0c-2.179-0.249-4.18 0.085-6.003 1.003-1.822 0.912-3.316 2.268-4.482 4.067-1.158 1.793-1.877 3.912-2.157 6.356v0c-0.276 2.411-0.054 4.634 0.666 6.669 0.727 2.029 1.875 3.694 3.444 4.994 1.569 1.3 3.443 2.075 5.622 2.325v0c2.219 0.254 4.236-0.075 6.052-0.988 1.822-0.912 3.323-2.273 4.504-4.085 1.181-1.817 1.91-3.932 2.186-6.342z"
                                                opacity="1" transform="matrix(1,0,0,1,0,0)"
                                                fill="#000000" class="wordmark-text-0"
                                                data-fill-palette-color="primary" id="text-0"></path>
                                        </svg>
                                    </g>
                                </svg>
                            </g>
                        </svg>
                    </g>
                </svg>
            </g>
            <g transform="matrix(1,0,0,1,124.11058710444694,0)">
                <svg viewBox="0 0 147.29882579110617 87.00320531810362" height="87.00320531810362"
                    width="147.29882579110617">
                    <g>
                        <svg xmlns="http://www.w3.org/2000/svg"
                            xmlns:xlink="http://www.w3.org/1999/xlink" version="1.1" x="0" y="0"
                            viewBox="6.77400016784668 46.57500076293945 90.44999694824219 53.42499923706055"
                            xml:space="preserve" height="87.00320531810362"
                            width="147.29882579110617" class="icon-icon-0"
                            data-fill-palette-color="accent" id="icon-0">
              <g fill="#f78154" data-fill-palette-color="accent">
                <polygon fill="#f78154" points="21.07,78.115 26.417,87.941 19.928,100 13.046,100  " data-fill-palette-color="accent"></polygon>
                <polygon fill="#f78154" points="60.734,86.577 65.427,95.227 62.572,100 55.708,100  " data-fill-palette-color="accent"></polygon>
                <polygon fill="#f78154" points="32.462,46.575 18.231,46.575 18.231,51.761 6.774,51.761 6.774,59.358 36.683,90.231 36.683,100    43.557,100 43.557,78.051 63.004,78.051 74.652,90.045 74.652,100 81.546,100 81.546,79.137 93.727,91.679 97.224,91.679    69.245,62.494 47.939,62.494  " data-fill-palette-color="accent"></polygon>
              </g>
            </svg>
                    </g>
                </svg>
            </g>
            <g></g>
        </svg>
    </g>
    <defs></defs>
</svg>